# xmcd
#
# Track frame offsets:
#	150
#	41738
#	77926
#	107198
#	154713
#	201432
#	237982
#	268811
#	307839
#	336347
#
# Disc length: 4728 seconds
#
# Revision: 1
# Processed by: cddbd v1.5.1PL0 Copyright (c) Steve Scherf et al.
# Submitted via: audiograbber 1.82.02
#
DISCID=8d12760a
DTITLE=The Angst Band - Live @ Indigo Alley
DYEAR=2003
DGENRE=Blues
TTITLE0=Waiting For The Moment
TTITLE1=Goin' Down Slow
TTITLE2=Fool That I Am
TTITLE3=Jealousy
TTITLE4=Human
TTITLE5=Ticket To Ride
TTITLE6=Inside Here
TTITLE7=Markington
TTITLE8=Paint My House
TTITLE9=Delilah
EXTD=www.paulmiddleton.com
EXTT0=
EXTT1=
EXTT2=
EXTT3=
EXTT4=
EXTT5=
EXTT6=
EXTT7=
EXTT8=
EXTT9=
PLAYORDER=
